<svg width="303" height="144" viewBox="0 0 303 144" fill="none" xmlns="http://www.w3.org/2000/svg">
<path d="M123.667 7.83333H131.833C136.5 7.83333 136.5 14.25 131.833 14.25M123.667 7.83333L127.75 3.75M123.667 7.83333L127.75 11.9167" stroke="#141414" stroke-width="1.25" stroke-linecap="round" stroke-linejoin="round"/>
<path d="M149.694 9.716C149.442 9.73 149.19 9.73 148.924 9.73H147.132V14H145.704V3.85H148.924C151.402 3.85 153.152 4.34 153.152 6.776C153.152 8.386 152.382 9.156 151.136 9.492L153.488 14H151.892L149.694 9.716ZM147.132 5.054V8.526H149.036C150.52 8.526 151.682 8.372 151.682 6.804C151.682 5.236 150.52 5.054 149.036 5.054H147.132ZM155.796 10.654C155.852 12.278 157 13.062 158.12 13.062C159.24 13.062 159.856 12.558 160.178 11.816H161.494C161.144 13.118 159.954 14.182 158.12 14.182C155.74 14.182 154.424 12.474 154.424 10.248C154.424 7.868 156.02 6.342 158.078 6.342C160.374 6.342 161.76 8.274 161.592 10.654H155.796ZM155.81 9.562H160.248C160.22 8.498 159.422 7.434 158.078 7.434C156.944 7.434 155.922 8.05 155.81 9.562ZM164.35 6.468V7.658C164.812 6.86 165.61 6.342 166.814 6.342C168.536 6.342 170.034 7.784 170.034 10.262C170.034 12.754 168.536 14.182 166.814 14.182C165.61 14.182 164.812 13.664 164.35 12.866V16.45H163.076V6.468H164.35ZM166.492 13.09C167.794 13.09 168.648 12.054 168.648 10.262C168.648 8.47 167.794 7.434 166.492 7.434C165.358 7.434 164.294 8.274 164.294 10.262C164.294 12.25 165.358 13.09 166.492 13.09ZM172.8 14H171.526V3.85H172.8V14ZM180.337 6.468L177.649 14.322C177.103 15.96 176.711 16.45 175.031 16.45H174.373V15.386H174.891C175.731 15.386 176.137 15.33 176.473 14.154L176.529 14L173.812 6.468H175.227L177.145 12.278L179.007 6.468H180.337Z" fill="#141414"/>
<path d="M126.833 49.8333H118.667C114 49.8333 114 56.25 118.667 56.25M126.833 49.8333L122.75 45.75M126.833 49.8333L122.75 53.9167" stroke="black" stroke-width="1.25" stroke-linecap="round" stroke-linejoin="round"/>
<path d="M137.204 45.85H143.798V47.082H138.632V50.162H143.504V51.394H138.632V56H137.204V45.85ZM151.576 52.262C151.576 54.992 149.714 56.182 147.964 56.182C146.214 56.182 144.352 54.992 144.352 52.262C144.352 49.532 146.214 48.342 147.964 48.342C149.714 48.342 151.576 49.532 151.576 52.262ZM147.964 55.062C149.112 55.062 150.218 54.194 150.218 52.262C150.218 50.26 149.112 49.462 147.964 49.462C146.816 49.462 145.71 50.204 145.71 52.262C145.71 54.264 146.816 55.062 147.964 55.062ZM156.852 49.798C156.586 49.77 156.348 49.742 156.138 49.742C154.962 49.742 154.374 50.4 154.374 52.052V56H153.1V48.468H154.346V49.784C154.724 48.93 155.494 48.454 156.474 48.426C156.6 48.426 156.712 48.426 156.852 48.44V49.798ZM161.45 48.468H162.766L164.264 54.04L165.706 48.468H167.078L164.908 56H163.746L162.08 49.938L160.47 56H159.308L157.138 48.468H158.51L159.952 54.04L161.45 48.468ZM167.568 54.012C167.568 52.234 169.57 51.716 172.664 51.366V51.184C172.664 49.812 171.894 49.35 170.956 49.35C169.906 49.35 169.29 49.924 169.234 50.848H167.918C168.044 49.224 169.472 48.314 170.942 48.314C173.014 48.314 173.952 49.308 173.938 51.422L173.924 53.158C173.91 54.418 173.98 55.286 174.12 56H172.832C172.79 55.72 172.748 55.412 172.734 54.964C172.272 55.734 171.488 56.182 170.158 56.182C168.744 56.182 167.568 55.398 167.568 54.012ZM172.762 52.374C170.452 52.612 168.982 52.948 168.982 53.984C168.982 54.698 169.528 55.174 170.438 55.174C171.628 55.174 172.762 54.628 172.762 52.85V52.374ZM179.588 49.798C179.322 49.77 179.084 49.742 178.874 49.742C177.698 49.742 177.11 50.4 177.11 52.052V56H175.836V48.468H177.082V49.784C177.46 48.93 178.23 48.454 179.21 48.426C179.336 48.426 179.448 48.426 179.588 48.44V49.798ZM185.842 45.85H187.116V56H185.842V54.866C185.38 55.664 184.582 56.182 183.378 56.182C181.656 56.182 180.158 54.754 180.158 52.262C180.158 49.784 181.656 48.342 183.378 48.342C184.582 48.342 185.38 48.86 185.842 49.658V45.85ZM183.7 49.434C182.398 49.434 181.544 50.47 181.544 52.262C181.544 54.054 182.398 55.09 183.7 55.09C184.834 55.09 185.898 54.25 185.898 52.262C185.898 50.274 184.834 49.434 183.7 49.434Z" fill="#141414"/>
<path d="M110.417 93.5834L112.75 95.9167L118.583 90.0834" stroke="#141414" stroke-opacity="0.5" stroke-width="1.25" stroke-linecap="round" stroke-linejoin="round"/>
<path d="M130.266 87.85H131.918L135.74 98H134.2L133.402 95.802H128.74L127.956 98H126.5L130.266 87.85ZM129.174 94.584H132.954L131.05 89.292L129.174 94.584ZM141.275 96.922C140.841 97.636 140.155 98.182 138.909 98.182C137.159 98.182 136.501 97.006 136.501 95.284V90.468H137.775V94.906C137.775 96.068 137.971 97.076 139.357 97.076C140.561 97.076 141.275 96.222 141.275 94.612V90.468H142.549V98H141.275V96.922ZM144.935 88.578H146.209V90.468H147.637V91.49H146.209V95.956C146.209 96.74 146.265 96.936 146.993 96.936H147.637V98H146.713C145.271 98 144.935 97.678 144.935 96.11V91.49H143.745V90.468H144.935V88.578ZM155.789 94.262C155.789 96.992 153.927 98.182 152.177 98.182C150.427 98.182 148.565 96.992 148.565 94.262C148.565 91.532 150.427 90.342 152.177 90.342C153.927 90.342 155.789 91.532 155.789 94.262ZM152.177 97.062C153.325 97.062 154.431 96.194 154.431 94.262C154.431 92.26 153.325 91.462 152.177 91.462C151.029 91.462 149.923 92.204 149.923 94.262C149.923 96.264 151.029 97.062 152.177 97.062ZM161.625 92.666C161.429 91.77 160.729 91.42 159.847 91.42C159.105 91.42 158.265 91.686 158.265 92.372C158.265 92.974 158.685 93.254 159.413 93.394L160.477 93.604C161.849 93.87 163.053 94.388 163.053 95.844C163.053 97.328 161.709 98.182 159.987 98.182C158.013 98.182 156.893 96.88 156.753 95.564H158.097C158.293 96.53 158.895 97.104 160.015 97.104C160.981 97.104 161.765 96.684 161.765 95.984C161.765 95.228 161.051 94.906 160.239 94.738L159.119 94.514C158.097 94.304 156.977 93.828 156.977 92.428C156.977 91.098 158.321 90.328 159.987 90.328C161.611 90.328 162.717 91.238 162.955 92.666H161.625ZM164.22 96.012C164.22 94.234 166.222 93.716 169.316 93.366V93.184C169.316 91.812 168.546 91.35 167.608 91.35C166.558 91.35 165.942 91.924 165.886 92.848H164.57C164.696 91.224 166.124 90.314 167.594 90.314C169.666 90.314 170.604 91.308 170.59 93.422L170.576 95.158C170.562 96.418 170.632 97.286 170.772 98H169.484C169.442 97.72 169.4 97.412 169.386 96.964C168.924 97.734 168.14 98.182 166.81 98.182C165.396 98.182 164.22 97.398 164.22 96.012ZM169.414 94.374C167.104 94.612 165.634 94.948 165.634 95.984C165.634 96.698 166.18 97.174 167.09 97.174C168.28 97.174 169.414 96.628 169.414 94.85V94.374ZM174.87 96.236L176.914 90.468H178.23L175.388 98H174.254L171.412 90.468H172.826L174.87 96.236ZM179.96 94.654C180.016 96.278 181.164 97.062 182.284 97.062C183.404 97.062 184.02 96.558 184.342 95.816H185.658C185.308 97.118 184.118 98.182 182.284 98.182C179.904 98.182 178.588 96.474 178.588 94.248C178.588 91.868 180.184 90.342 182.242 90.342C184.538 90.342 185.924 92.274 185.756 94.654H179.96ZM179.974 93.562H184.412C184.384 92.498 183.586 91.434 182.242 91.434C181.108 91.434 180.086 92.05 179.974 93.562ZM192.475 87.85H193.749V98H192.475V96.866C192.013 97.664 191.215 98.182 190.011 98.182C188.289 98.182 186.791 96.754 186.791 94.262C186.791 91.784 188.289 90.342 190.011 90.342C191.215 90.342 192.013 90.86 192.475 91.658V87.85ZM190.333 91.434C189.031 91.434 188.177 92.47 188.177 94.262C188.177 96.054 189.031 97.09 190.333 97.09C191.467 97.09 192.531 96.25 192.531 94.262C192.531 92.274 191.467 91.434 190.333 91.434Z" fill="#141414" fill-opacity="0.5"/>
<g clip-path="url(#clip0_113_1692)">
<mask id="mask0_113_1692" style="mask-type:luminance" maskUnits="userSpaceOnUse" x="123" y="128" width="15" height="14">
<path d="M123.5 128H137.5V142H123.5V128Z" fill="white"/>
</mask>
<g mask="url(#mask0_113_1692)">
<path d="M136.422 130.073L130.02 140.252L129.046 135.238L124.667 132.607L136.422 130.073ZM136.422 130.073L129.016 135.259" stroke="black" stroke-width="1.25" stroke-linecap="round" stroke-linejoin="round"/>
</g>
</g>
<path d="M150.1 129.668C151.92 129.668 153.558 130.48 153.95 132.44H152.564C152.214 131.264 151.066 130.872 150.044 130.872C149.26 130.872 147.888 131.222 147.888 132.356C147.888 133.252 148.602 133.7 149.54 133.91L150.716 134.176C152.27 134.512 154.132 135.1 154.132 137.144C154.132 139.132 152.284 140.182 150.268 140.182C147.874 140.182 146.362 138.88 146.096 136.85H147.496C147.762 138.25 148.742 138.978 150.296 138.978C151.794 138.978 152.662 138.264 152.662 137.27C152.662 136.206 151.752 135.758 150.478 135.478L149.218 135.212C147.832 134.904 146.432 134.134 146.432 132.44C146.432 130.508 148.462 129.668 150.1 129.668ZM156.684 136.654C156.74 138.278 157.888 139.062 159.008 139.062C160.128 139.062 160.744 138.558 161.066 137.816H162.382C162.032 139.118 160.842 140.182 159.008 140.182C156.628 140.182 155.312 138.474 155.312 136.248C155.312 133.868 156.908 132.342 158.966 132.342C161.262 132.342 162.648 134.274 162.48 136.654H156.684ZM156.698 135.562H161.136C161.108 134.498 160.31 133.434 158.966 133.434C157.832 133.434 156.81 134.05 156.698 135.562ZM165.239 133.602C165.673 132.888 166.401 132.342 167.675 132.342C169.495 132.342 170.153 133.518 170.153 135.24V140H168.879V135.618C168.879 134.456 168.683 133.448 167.227 133.448C165.995 133.448 165.239 134.302 165.239 135.912V140H163.965V132.468H165.239V133.602ZM177.225 129.85H178.499V140H177.225V138.866C176.763 139.664 175.965 140.182 174.761 140.182C173.039 140.182 171.541 138.754 171.541 136.262C171.541 133.784 173.039 132.342 174.761 132.342C175.965 132.342 176.763 132.86 177.225 133.658V129.85ZM175.083 133.434C173.781 133.434 172.927 134.47 172.927 136.262C172.927 138.054 173.781 139.09 175.083 139.09C176.217 139.09 177.281 138.25 177.281 136.262C177.281 134.274 176.217 133.434 175.083 133.434Z" fill="#141414"/>
<defs>
<clipPath id="clip0_113_1692">
<rect width="14" height="14" fill="white" transform="translate(123.5 128)"/>
</clipPath>
</defs>
</svg>
